# xmcd
#
# Track frame offsets:
#	150
#	23475
#	38422
#	72215
#	102187
#
# Disc length: 1708 seconds
#
# Revision: 1
# Processed by: cddbd v1.5.1PL2 Copyright (c) Steve Scherf et al.
# Submitted via: dBpowerAMP V4.0
#
DISCID=2e06aa05
DTITLE=PE'Z - DAICHI-SANSHO
DYEAR=2003
DGENRE=Jazz
TTITLE0=DAICHI-SANSHO
TTITLE1=A Night in Tunisia
TTITLE2=Please come here
TTITLE3=DAICHI-SANSHO (Radio edit)
TTITLE4=DATA
EXTD=
EXTT0=
EXTT1=
EXTT2=
EXTT3=
EXTT4=
PLAYORDER=
